<?xml version="1.0" encoding="us-ascii" standalone="no"?><svg xmlns="http://www.w3.org/2000/svg" xmlns:xlink="http://www.w3.org/1999/xlink" contentStyleType="text/css" height="841px" preserveAspectRatio="none" style="width:1517px;height:841px;background:#FFFFFF;" version="1.1" viewBox="0 0 1517 841" width="1517px" zoomAndPan="magnify"><defs/><g><text fill="#000000" font-family="sans-serif" font-size="14" font-weight="bold" lengthAdjust="spacing" textLength="231" x="636" y="24.5332">Signal Stream - System Overview</text><!--cluster Service--><g id="cluster_Service"><rect fill="none" height="303.5" rx="2.5" ry="2.5" style="stroke:#181818;stroke-width:1.0;" width="673" x="838" y="531.8794"/><text fill="#000000" font-family="sans-serif" font-size="14" font-weight="bold" lengthAdjust="spacing" textLength="85" x="1132" y="548.4126">Source Data</text></g><!--cluster Industrial Protocols--><g id="cluster_Industrial Protocols"><path d="M1240.5,583.8794 L1378.5,583.8794 A3.75,3.75 0 0 1 1381,586.3794 L1388,607.4888 L1476.5,607.4888 A2.5,2.5 0 0 1 1479,609.9888 L1479,800.8794 A2.5,2.5 0 0 1 1476.5,803.3794 L1240.5,803.3794 A2.5,2.5 0 0 1 1238,800.8794 L1238,586.3794 A2.5,2.5 0 0 1 1240.5,583.8794 " fill="none" style="stroke:#000000;stroke-width:1.5;"/><line style="stroke:#000000;stroke-width:1.5;" x1="1238" x2="1388" y1="607.4888" y2="607.4888"/><text fill="#000000" font-family="sans-serif" font-size="14" font-weight="bold" lengthAdjust="spacing" textLength="137" x="1242" y="600.4126">Industrial Protocols</text></g><!--cluster Storage--><g id="cluster_Storage"><rect fill="#FFFFE0" height="173" rx="2.5" ry="2.5" style="stroke:#181818;stroke-width:1.0;" width="547" x="720" y="84.8794"/><text fill="#000000" font-family="sans-serif" font-size="14" font-weight="bold" lengthAdjust="spacing" textLength="55" x="966" y="101.4126">Storage</text></g><!--cluster Online Storage--><g id="cluster_Online Storage"><path d="M744,138.8794 C744,128.8794 818,128.8794 818,128.8794 C818,128.8794 892,128.8794 892,138.8794 L892,223.8794 C892,233.8794 818,233.8794 818,233.8794 C818,233.8794 744,233.8794 744,223.8794 L744,138.8794 " fill="none" style="stroke:#181818;stroke-width:1.0;"/><path d="M744,138.8794 C744,148.8794 818,148.8794 818,148.8794 C818,148.8794 892,148.8794 892,138.8794 " fill="none" style="stroke:#181818;stroke-width:1.0;"/><text fill="#000000" font-family="sans-serif" font-size="14" font-weight="bold" lengthAdjust="spacing" textLength="105" x="765.5" y="165.4126">Online Storage</text></g><!--cluster Offline Storage--><g id="cluster_Offline Storage"><path d="M916,138.8794 C916,128.8794 990,128.8794 990,128.8794 C990,128.8794 1064,128.8794 1064,138.8794 L1064,223.8794 C1064,233.8794 990,233.8794 990,233.8794 C990,233.8794 916,233.8794 916,223.8794 L916,138.8794 " fill="none" style="stroke:#181818;stroke-width:1.0;"/><path d="M916,138.8794 C916,148.8794 990,148.8794 990,148.8794 C990,148.8794 1064,148.8794 1064,138.8794 " fill="none" style="stroke:#181818;stroke-width:1.0;"/><text fill="#000000" font-family="sans-serif" font-size="14" font-weight="bold" lengthAdjust="spacing" textLength="106" x="937" y="165.4126">Offline Storage</text></g><!--cluster Project File Storage--><g id="cluster_Project File Storage"><path d="M1088,138.8794 C1088,128.8794 1165.5,128.8794 1165.5,128.8794 C1165.5,128.8794 1243,128.8794 1243,138.8794 L1243,223.8794 C1243,233.8794 1165.5,233.8794 1165.5,233.8794 C1165.5,233.8794 1088,233.8794 1088,223.8794 L1088,138.8794 " fill="none" style="stroke:#181818;stroke-width:1.0;"/><path d="M1088,138.8794 C1088,148.8794 1165.5,148.8794 1165.5,148.8794 C1165.5,148.8794 1243,148.8794 1243,138.8794 " fill="none" style="stroke:#181818;stroke-width:1.0;"/><text fill="#000000" font-family="sans-serif" font-size="14" font-weight="bold" lengthAdjust="spacing" textLength="139" x="1096" y="165.4126">Project File Storage</text></g><!--cluster Project--><g id="cluster_Project"><rect fill="#778899" height="106" rx="2.5" ry="2.5" style="stroke:#181818;stroke-width:1.0;" width="300" x="690" y="345.8794"/><text fill="#000000" font-family="sans-serif" font-size="14" font-weight="bold" lengthAdjust="spacing" textLength="50" x="815" y="362.4126">Project</text></g><!--cluster User Interface--><g id="cluster_User Interface"><rect fill="none" height="190" rx="2.5" ry="2.5" style="stroke:#181818;stroke-width:1.0;" width="689" x="7" y="83.8794"/><text fill="#000000" font-family="sans-serif" font-size="14" font-weight="bold" lengthAdjust="spacing" textLength="100" x="301.5" y="100.4126">User Interface</text></g><!--cluster Windows--><g id="cluster_Windows"><rect fill="#90EE90" height="106" rx="2.5" ry="2.5" style="stroke:#181818;stroke-width:1.0;" width="625" x="39" y="135.8794"/><path d="M112,135.8794 L112,146.4887 L102,156.4887 L39,156.4887 " fill="none" style="stroke:#181818;stroke-width:1.0;"/><text fill="#000000" font-family="sans-serif" font-size="14" font-weight="bold" lengthAdjust="spacing" textLength="63" x="42" y="151.4126">Windows</text></g><!--entity BaseService--><g id="elem_BaseService"><rect fill="#F1F1F1" height="37.6094" rx="2.5" ry="2.5" style="stroke:#181818;stroke-width:0.5;" width="103" x="870.5" y="749.3794"/><text fill="#000000" font-family="sans-serif" font-size="14" lengthAdjust="spacing" textLength="83" x="880.5" y="773.9126">Base Service</text></g><g id="elem_GMN9"><path d="M1008.5,746.8794 L1008.5,764.3794 L973.64,768.3794 L1008.5,772.3794 L1008.5,789.5825 A0,0 0 0 0 1008.5,789.5825 L1221.5,789.5825 A0,0 0 0 0 1221.5,789.5825 L1221.5,756.8794 L1211.5,746.8794 L1008.5,746.8794 A0,0 0 0 0 1008.5,746.8794 " fill="#FEFFDD" style="stroke:#181818;stroke-width:0.5;"/><path d="M1211.5,746.8794 L1211.5,756.8794 L1221.5,756.8794 L1211.5,746.8794 " fill="#FEFFDD" style="stroke:#181818;stroke-width:0.5;"/><text fill="#000000" font-family="sans-serif" font-size="13" lengthAdjust="spacing" textLength="192" x="1014.5" y="765.3745">Source Protocol Adapters extend</text><text fill="#000000" font-family="sans-serif" font-size="13" lengthAdjust="spacing" textLength="129" x="1014.5" y="781.7261">the base service class</text></g><!--entity SchemaRegistry--><g id="elem_SchemaRegistry"><ellipse cx="1046" cy="638.8794" fill="#F1F1F1" rx="8" ry="8" style="stroke:#181818;stroke-width:0.5;"/><text fill="#000000" font-family="sans-serif" font-size="14" lengthAdjust="spacing" textLength="103" x="994.5" y="670.4126">SchemaRegistry</text></g><!--entity Instance--><g id="elem_Instance"><ellipse cx="918" cy="638.8794" fill="#F1F1F1" rx="8" ry="8" style="stroke:#181818;stroke-width:0.5;"/><text fill="#000000" font-family="sans-serif" font-size="14" lengthAdjust="spacing" textLength="53" x="891.5" y="670.4126">Instance</text></g><!--entity OPC UA--><g id="elem_OPC UA"><rect fill="#F1F1F1" height="37.6094" rx="2.5" ry="2.5" style="stroke:#181818;stroke-width:0.5;" width="72" x="1254" y="619.8794"/><text fill="#000000" font-family="sans-serif" font-size="14" lengthAdjust="spacing" textLength="52" x="1264" y="644.4126">OPC UA</text></g><!--entity Modbus TCP--><g id="elem_Modbus TCP"><rect fill="#F1F1F1" height="37.6094" rx="2.5" ry="2.5" style="stroke:#181818;stroke-width:0.5;" width="102" x="1361" y="619.8794"/><text fill="#000000" font-family="sans-serif" font-size="14" lengthAdjust="spacing" textLength="82" x="1371" y="644.4126">Modbus TCP</text></g><!--entity MQTT--><g id="elem_MQTT"><rect fill="#F1F1F1" height="37.6094" rx="2.5" ry="2.5" style="stroke:#181818;stroke-width:0.5;" width="60" x="1260" y="749.3794"/><text fill="#000000" font-family="sans-serif" font-size="14" lengthAdjust="spacing" textLength="40" x="1270" y="773.9126">MQTT</text></g><!--entity Serial--><g id="elem_Serial"><rect fill="#F1F1F1" height="37.6094" rx="2.5" ry="2.5" style="stroke:#181818;stroke-width:0.5;" width="56" x="1355" y="749.3794"/><text fill="#000000" font-family="sans-serif" font-size="14" lengthAdjust="spacing" textLength="36" x="1365" y="773.9126">Serial</text></g><!--entity OnlineDataStorage--><g id="elem_OnlineDataStorage"><rect fill="#F1F1F1" height="37.6094" rx="2.5" ry="2.5" style="stroke:#181818;stroke-width:0.5;" width="115" x="760.5" y="179.8794"/><text fill="#000000" font-family="sans-serif" font-size="14" lengthAdjust="spacing" textLength="95" x="770.5" y="204.4126">Online Storage</text></g><!--entity OfflineDataStorage--><g id="elem_OfflineDataStorage"><rect fill="#F1F1F1" height="37.6094" rx="2.5" ry="2.5" style="stroke:#181818;stroke-width:0.5;" width="115" x="932.5" y="179.8794"/><text fill="#000000" font-family="sans-serif" font-size="14" lengthAdjust="spacing" textLength="95" x="942.5" y="204.4126">Offline Storage</text></g><!--entity ProjectFileStorage--><g id="elem_ProjectFileStorage"><rect fill="#F1F1F1" height="37.6094" rx="2.5" ry="2.5" style="stroke:#181818;stroke-width:0.5;" width="97" x="1104.5" y="179.8794"/><text fill="#000000" font-family="sans-serif" font-size="14" lengthAdjust="spacing" textLength="77" x="1114.5" y="204.4126">File Storage</text></g><!--entity ProjectManager--><g id="elem_ProjectManager"><rect fill="#F1F1F1" height="37.6094" rx="2.5" ry="2.5" style="stroke:#181818;stroke-width:0.5;" width="124" x="842" y="389.8794"/><text fill="#000000" font-family="sans-serif" font-size="14" lengthAdjust="spacing" textLength="104" x="852" y="414.4126">Project Manager</text></g><!--entity services--><g id="elem_services"><rect fill="#F1F1F1" height="33.6094" rx="2.5" ry="2.5" style="stroke:#181818;stroke-width:0.5;" width="70" x="737" y="393.8794"/><rect fill="#F1F1F1" height="33.6094" rx="2.5" ry="2.5" style="stroke:#181818;stroke-width:0.5;" width="70" x="733" y="389.8794"/><text fill="#000000" font-family="sans-serif" font-size="14" lengthAdjust="spacing" textLength="54" x="741" y="412.4126">Services</text></g><!--entity SignalBrowser--><g id="elem_SignalBrowser"><rect fill="#F1F1F1" height="37.6094" rx="2.5" ry="2.5" style="stroke:#181818;stroke-width:0.5;" width="114" x="526" y="179.8794"/><text fill="#000000" font-family="sans-serif" font-size="14" lengthAdjust="spacing" textLength="94" x="536" y="204.4126">Signal Browser</text></g><!--entity LiveView--><g id="elem_LiveView"><rect fill="#F1F1F1" height="37.6094" rx="2.5" ry="2.5" style="stroke:#181818;stroke-width:0.5;" width="79" x="411.5" y="179.8794"/><text fill="#000000" font-family="sans-serif" font-size="14" lengthAdjust="spacing" textLength="59" x="421.5" y="204.4126">Live View</text></g><!--entity FPS--><g id="elem_FPS"><rect fill="#F1F1F1" height="37.6094" rx="2.5" ry="2.5" style="stroke:#181818;stroke-width:0.5;" width="47" x="329.5" y="179.8794"/><text fill="#000000" font-family="sans-serif" font-size="14" lengthAdjust="spacing" textLength="27" x="339.5" y="204.4126">FPS</text></g><!--entity AnalysisView--><g id="elem_AnalysisView"><rect fill="#F1F1F1" height="37.6094" rx="2.5" ry="2.5" style="stroke:#181818;stroke-width:0.5;" width="105" x="189.5" y="179.8794"/><text fill="#000000" font-family="sans-serif" font-size="14" lengthAdjust="spacing" textLength="85" x="199.5" y="204.4126">Analysis View</text></g><!--entity Console--><g id="elem_Console"><rect fill="#F1F1F1" height="37.6094" rx="2.5" ry="2.5" style="stroke:#181818;stroke-width:0.5;" width="72" x="82" y="179.8794"/><text fill="#000000" font-family="sans-serif" font-size="14" lengthAdjust="spacing" textLength="52" x="92" y="204.4126">Console</text></g><!--link SchemaRegistry to BaseService--><g id="link_SchemaRegistry_BaseService"><path d="M1045.12,648.0594 C1043.09,663.2894 1036.81,696.3194 1019,716.8794 C1006.88,730.8694 995.3315,738.9378 978.9815,746.7678 " fill="none" id="SchemaRegistry-to-BaseService" style="stroke:#181818;stroke-width:1.0;"/><polygon fill="#181818" points="973.57,749.3594,983.4149,749.0797,978.0796,747.1998,979.9595,741.8644,973.57,749.3594" style="stroke:#181818;stroke-width:1.0;"/></g><!--link Instance to BaseService--><g id="link_Instance_BaseService"><path d="M918.26,648.2494 C918.9,668.6294 920.3615,715.2623 921.2415,743.2523 " fill="none" id="Instance-to-BaseService" style="stroke:#181818;stroke-width:1.0;"/><polygon fill="#181818" points="921.43,749.2494,925.1452,740.1281,921.2729,744.2518,917.1492,740.3795,921.43,749.2494" style="stroke:#181818;stroke-width:1.0;"/><text fill="#000000" font-family="sans-serif" font-size="13" lengthAdjust="spacing" textLength="89" x="921" y="713.3745">sample storage</text></g><!--link ProjectFileStorage to ProjectManager--><g id="link_ProjectFileStorage_ProjectManager"><path d="M1129.9458,222.048 C1112.1958,238.958 1088.95,260.6194 1064,281.8794 C1017.04,321.8994 964.5464,362.2813 932.8364,386.2513 " fill="none" id="ProjectFileStorage-ProjectManager" style="stroke:#181818;stroke-width:1.0;"/><polygon fill="#181818" points="1134.29,217.9094,1125.0147,221.2212,1130.6698,221.3582,1130.5328,227.0134,1134.29,217.9094" style="stroke:#181818;stroke-width:1.0;"/><polygon fill="#181818" points="928.05,389.8694,937.6416,387.6332,932.0387,386.8543,932.8175,381.2513,928.05,389.8694" style="stroke:#181818;stroke-width:1.0;"/></g><!--link OfflineDataStorage to ProjectManager--><g id="link_OfflineDataStorage_ProjectManager"><path d="M980.2269,223.5139 C963.9569,262.8539 930.1222,344.7045 913.8222,384.1345 " fill="none" id="OfflineDataStorage-ProjectManager" style="stroke:#181818;stroke-width:1.0;"/><polygon fill="#181818" points="982.52,217.9694,975.384,224.7575,980.6091,222.5898,982.7767,227.8149,982.52,217.9694" style="stroke:#181818;stroke-width:1.0;"/><polygon fill="#181818" points="911.53,389.6794,918.6649,382.8902,913.4402,385.0586,911.2717,379.8339,911.53,389.6794" style="stroke:#181818;stroke-width:1.0;"/></g><!--link OnlineDataStorage to ProjectManager--><g id="link_OnlineDataStorage_ProjectManager"><path d="M827.7731,223.5139 C844.0431,262.8539 877.8778,344.7045 894.1778,384.1345 " fill="none" id="OnlineDataStorage-ProjectManager" style="stroke:#181818;stroke-width:1.0;"/><polygon fill="#181818" points="825.48,217.9694,825.2233,227.8149,827.3909,222.5898,832.616,224.7575,825.48,217.9694" style="stroke:#181818;stroke-width:1.0;"/><polygon fill="#181818" points="896.47,389.6794,896.7283,379.8339,894.5598,385.0586,889.3351,382.8902,896.47,389.6794" style="stroke:#181818;stroke-width:1.0;"/></g><!--link Windows to SignalBrowser--><!--link Windows to LiveView--><!--link Windows to FPS--><!--link Windows to AnalysisView--><!--link Windows to Console--><!--link Windows to Project--><g id="link_Windows_Project"><path d="M47.7555,242.0543 C47.7782,242.1915 47.8011,242.3288 47.8243,242.4661 C48.0098,243.5646 48.2118,244.6667 48.4314,245.77 C49.3098,250.1832 50.4705,254.6152 51.9891,258.9134 C55.0263,267.51 59.495,275.5719 66,281.8794 C117.005,331.3344 272.945,362.7294 417.1513,381.8131 C489.2544,391.355 558.4241,397.8191 610.0767,401.9239 C635.903,403.9763 657.3501,405.4389 672.595,406.4016 C676.4062,406.6422 679.8298,406.8517 682.8372,407.0312 C684.341,407.121 685.7407,407.2033 687.0328,407.2784 C687.6788,407.3159 688.298,407.3516 688.8898,407.3855 C689.1857,407.4024 683.4844,407.0782 683.7666,407.0942 " fill="none" id="Windows-to-Project" style="stroke:#181818;stroke-width:1.0;"/><polygon fill="#181818" points="689.7569,407.435,680.9986,402.9303,684.765,407.151,680.5443,410.9174,689.7569,407.435" style="stroke:#181818;stroke-width:1.0;"/><text fill="#000000" font-family="sans-serif" font-size="13" lengthAdjust="spacing" textLength="108" x="140" y="311.3745">Open/Save Project</text><ellipse cx="417.1513" cy="381.8131" fill="#FFFFFF" rx="10" ry="10" style="stroke:#FFFFFF;stroke-width:1.0;"/><path d="M423.2335,389.7507 A10,10 0 0 0 425.0889 375.7308" fill="none" style="stroke:#181818;stroke-width:1.5;"/><path d="M411.069,373.8755 A10,10 0 0 0 409.2136 387.8954" fill="none" style="stroke:#181818;stroke-width:1.5;"/><ellipse cx="417.1513" cy="381.8131" fill="#FFFFFF" rx="6" ry="6" style="stroke:#181818;stroke-width:1.5;"/></g><!--link ProjectManager to Service--><g id="link_ProjectManager_Service"><path d="M892.72,428.2194 C880.75,448.7394 862.41,483.3794 854,515.8794 C853.1631,519.1163 852.3989,522.4166 851.7017,525.7605 C851.3531,527.4324 851.0212,529.1152 850.7053,530.8063 C850.6658,531.0177 851.7135,525.3285 851.6745,525.5402 " fill="none" id="ProjectManager-to-Service" style="stroke:#181818;stroke-width:1.0;"/><polygon fill="#181818" points="850.5875,531.4409,856.1518,523.3144,851.4934,526.5236,848.2842,521.8651,850.5875,531.4409" style="stroke:#181818;stroke-width:1.0;"/><text fill="#000000" font-family="sans-serif" font-size="13" lengthAdjust="spacing" textLength="105" x="875" y="497.3745">Start/Stop Service</text><ellipse cx="872.025" cy="467.5569" fill="#FFFFFF" rx="10" ry="10" style="stroke:#FFFFFF;stroke-width:1.0;"/><path d="M862.6274,470.9751 A10,10 0 0 0 875.4433 476.9545" fill="none" style="stroke:#181818;stroke-width:1.5;"/><path d="M881.4226,464.1386 A10,10 0 0 0 868.6067 458.1592" fill="none" style="stroke:#181818;stroke-width:1.5;"/><ellipse cx="872.025" cy="467.5569" fill="#FFFFFF" rx="6" ry="6" style="stroke:#181818;stroke-width:1.5;"/></g><!--link services to Service--><g id="link_services_Service"><path d="M776.09,428.1494 C784.965,454.7794 802.04,506.0019 817.0925,551.1581 C824.6188,573.7362 831.6394,594.7978 836.8766,610.5105 C837.2039,611.4925 837.5242,612.4537 837.8373,613.393 " fill="none" id="services-Service" style="stroke:#181818;stroke-width:1.0;stroke-dasharray:7.0,7.0;"/></g><!--SRC=[VLHDZzem4BtdLupIItk8TizLLOdTLIkaNK4RjbM5E7ZZ2RXhxCWsK5JjV-_u2mY4NXBx-StNcx7jgr0TCsmDZLvtMg5ojTjB18EDOsefiN32qRuMIyKarCuWaIkezzRX6YPRD5k1kw8u641Pwurf41wOOoKm2xNd4F2t06Yrv6YW72k-iSu8yZarskb6Iri61i1yChs7vz4YRfuqVzbOcDrFC_1jDajByamU_EQjeC_yZbdCuHO-j0VItXEKTbIQMAuSwBPtwDsbl7C-CEAiSsWiu1-7YWUEMo6y-2Ws5TL8PYqT4I6ufsLHDojSi- -u55JY7ghgSo_MM5cIYcpF3k0ZMBRkI4Bhj65BBDxwkaQqX7UFleHVAANU1SquIHsoAYTA2aKQP6fMj0S7QIBacvJGe6BFLziEE-lZqLl4_kUETFrDnS0N8IzzdeB1OM9x_DHXNv54AayCaZYrP0w_6jo70FDy-CGKUJAd4HBanuEQBWaHMbbIEpR51kUfsxOe-bRmgTfG4mUI7UGDg3JCk-WDrNrQ-3Cb16D5qzco9gdOqZMcevz2SRsBQQTrqeJaG9K4juUBhpH7YntSdk66gTSX_Ef34MzaV2Vk38LDEaSe8P7rABO8F-ZT20I_yviq2TCweFIFm8YizrROeq56ZaRtr38ju-IaTH5EiW9LkFNpbU0SrO8alipgAhMNtrLMplSguIBhgynSGHhu0u- -wltjX-F0qOinwL3Tr6oB6JkVg2fQ7D-OsZ7ZRcYmkWmMURnpAfpP5V95TI3y0m00]--></g></svg>